name analog
datacolumns 19
datarows 52
range 0.0 0.025500000000000002
endheader
time	ground_force_vx	ground_force_vy	ground_force_vz	ground_force_px	ground_force_py	ground_force_pz	l_ground_force_vx	l_ground_force_vy	l_ground_force_vz	l_ground_force_px	l_ground_force_py	l_ground_force_pz	ground_torque_x	ground_torque_y	ground_torque_z	l_ground_torque_x	l_ground_torque_y	l_ground_torque_z
0.0	-0.0	-0.0	-0.0	-0.0	-0.0	-0.0	0.2086918205022812	2.4418740272521973	-873.3312377929688	-0.0	-0.0	-0.0	-0.0	-0.0	-0.0	243588.28125	7874.43310546875	27.021928787231445
0.0005	-0.0	-0.0	-0.0	-0.0	-0.0	-0.0	-0.4074188470840454	3.4707183837890625	-871.83154296875	-0.0	-0.0	-0.0	-0.0	-0.0	-0.0	243639.0	8209.4453125	-159.81161499023438
0.001	-0.0	-0.0	-0.0	-0.0	-0.0	-0.0	-0.4651256799697876	4.026986122131348	-871.5013427734375	-0.0	-0.0	-0.0	-0.0	-0.0	-0.0	243459.8125	8842.8642578125	-267.8890686035156
0.0015	-0.0	-0.0	-0.0	-0.0	-0.0	-0.0	-0.1819957494735717	4.690157413482666	-870.6617431640625	-0.0	-0.0	-0.0	-0.0	-0.0	-0.0	243788.25	8779.79296875	-277.8419189453125
0.002	-0.0	-0.0	-0.0	-0.0	-0.0	-0.0	-0.5056270956993103	5.308060646057129	-870.2955322265625	-0.0	-0.0	-0.0	-0.0	-0.0	-0.0	243750.5	9017.806640625	-414.3078918457031
0.0025	-0.0	-0.0	-0.0	-0.0	-0.0	-0.0	-0.5899963974952698	6.359161376953125	-870.31298828125	-0.0	-0.0	-0.0	-0.0	-0.0	-0.0	244085.453125	9417.50390625	-476.2555847167969
0.003	-0.0	-0.0	-0.0	-0.0	-0.0	-0.0	-1.2069151401519775	7.0041327476501465	-870.5728759765625	-0.0	-0.0	-0.0	-0.0	-0.0	-0.0	244265.09375	9869.150390625	-653.0588989257812
0.0035	-0.0	-0.0	-0.0	-0.0	-0.0	-0.0	-1.4502503871917725	7.273120880126953	-869.5090942382812	-0.0	-0.0	-0.0	-0.0	-0.0	-0.0	244548.609375	10454.822265625	-801.4248657226562
0.004	-0.0	-0.0	-0.0	-0.0	-0.0	-0.0	-1.9442414045333865	7.008080959320068	-870.5416870117188	-0.0	-0.0	-0.0	-0.0	-0.0	-0.0	244586.765625	10797.0986328125	-1027.5439453125
0.0045000000000000005	-0.0	-0.0	-0.0	-0.0	-0.0	-0.0	-2.9037582874298096	6.681838035583496	-870.8773803710938	-0.0	-0.0	-0.0	-0.0	-0.0	-0.0	244975.484375	11305.7265625	-1304.407470703125
0.005	-0.0	-0.0	-0.0	-0.0	-0.0	-0.0	-2.930853843688965	6.8279547691345215	-871.952392578125	-0.0	-0.0	-0.0	-0.0	-0.0	-0.0	245168.734375	11347.0517578125	-1412.8209228515625
0.0055	-0.0	-0.0	-0.0	-0.0	-0.0	-0.0	-3.077422618865967	5.6862406730651855	-872.6504516601562	-0.0	-0.0	-0.0	-0.0	-0.0	-0.0	245623.578125	11746.1826171875	-1413.3155517578125
0.006	-0.0	-0.0	-0.0	-0.0	-0.0	-0.0	-3.5208940505981445	5.089169025421143	-874.9619750976562	-0.0	-0.0	-0.0	-0.0	-0.0	-0.0	245858.65625	11990.970703125	-1573.405517578125
0.006500000000000001	-0.0	-0.0	-0.0	-0.0	-0.0	-0.0	-4.169406890869141	4.032413959503174	-874.395751953125	-0.0	-0.0	-0.0	-0.0	-0.0	-0.0	246335.5	12265.8857421875	-1653.8726806640625
0.007	-0.0	-0.0	-0.0	-0.0	-0.0	-0.0	-4.967803955078125	3.146623134613037	-875.6722412109375	-0.0	-0.0	-0.0	-0.0	-0.0	-0.0	246670.109375	12669.2080078125	-1941.9656982421875
0.0075	-0.0	-0.0	-0.0	-0.0	-0.0	-0.0	-5.852386951446533	3.0634944438934326	-875.2034301757812	-0.0	-0.0	-0.0	-0.0	-0.0	-0.0	246408.453125	12967.498046875	-2050.202880859375
0.008	-0.0	-0.0	-0.0	-0.0	-0.0	-0.0	-6.681345939636231	2.473007202148437	-875.6722412109375	-0.0	-0.0	-0.0	-0.0	-0.0	-0.0	246269.609375	12828.392578125	-2338.9765625
0.0085	-0.0	-0.0	-0.0	-0.0	-0.0	-0.0	-6.828604698181152	1.912931084632873	-874.1648559570312	-0.0	-0.0	-0.0	-0.0	-0.0	-0.0	246317.15625	12974.30078125	-2485.314208984375
0.009000000000000001	-0.0	-0.0	-0.0	-0.0	-0.0	-0.0	-6.804495811462402	2.0615036487579346	-873.8153686523438	-0.0	-0.0	-0.0	-0.0	-0.0	-0.0	246223.3125	13205.47265625	-2752.96044921875
0.0095	-0.0	-0.0	-0.0	-0.0	-0.0	-0.0	-7.272507667541504	2.2681024074554443	-874.0382080078125	-0.0	-0.0	-0.0	-0.0	-0.0	-0.0	246408.78125	13564.796875	-2753.265625
0.01	-0.0	-0.0	-0.0	-0.0	-0.0	-0.0	-7.568918704986572	3.177985429763794	-874.1634521484375	-0.0	-0.0	-0.0	-0.0	-0.0	-0.0	246997.65625	13436.6005859375	-2950.310791015625
0.0105	-0.0	-0.0	-0.0	-0.0	-0.0	-0.0	-8.069825172424316	4.0642194747924805	-875.5540161132812	-0.0	-0.0	-0.0	-0.0	-0.0	-0.0	247389.421875	13872.6083984375	-3129.0009765625
0.011	-0.0	-0.0	-0.0	-0.0	-0.0	-0.0	-7.866558074951172	4.771964550018311	-877.7672119140625	-0.0	-0.0	-0.0	-0.0	-0.0	-0.0	247791.71875	13941.7841796875	-3129.139892578125
0.0115	-0.0	-0.0	-0.0	-0.0	-0.0	-0.0	-8.308868408203125	6.094196319580078	-880.2068481445312	-0.0	-0.0	-0.0	-0.0	-0.0	-0.0	248162.8125	14307.921875	-3415.349365234375
0.012	-0.0	-0.0	-0.0	-0.0	-0.0	-0.0	-8.544303894042969	6.948570728302002	-880.4463500976562	-0.0	-0.0	-0.0	-0.0	-0.0	-0.0	248797.859375	14391.57421875	-3494.981201171875
0.0125	-0.0	-0.0	-0.0	-0.0	-0.0	-0.0	-8.397712707519531	7.183015823364258	-882.4263916015625	-0.0	-0.0	-0.0	-0.0	-0.0	-0.0	249159.421875	14690.0146484375	-3494.7783203125
0.013000000000000001	-0.0	-0.0	-0.0	-0.0	-0.0	-0.0	-8.841307640075684	6.948371887207031	-883.7027587890625	-0.0	-0.0	-0.0	-0.0	-0.0	-0.0	249304.828125	15015.740234375	-3613.983154296875
0.0135	-0.0	-0.0	-0.0	-0.0	-0.0	-0.0	-9.018427848815918	6.329970836639404	-884.9794921875	-0.0	-0.0	-0.0	-0.0	-0.0	-0.0	249098.3125	15471.5498046875	-3791.873291015625
0.014	-0.0	-0.0	-0.0	-0.0	-0.0	-0.0	-9.66922378540039	5.652587890625	-884.5158081054688	-0.0	-0.0	-0.0	-0.0	-0.0	-0.0	249047.078125	15920.3818359375	-4069.4140625
0.0145	-0.0	-0.0	-0.0	-0.0	-0.0	-0.0	-10.970552444458008	4.828238010406494	-883.8193969726562	-0.0	-0.0	-0.0	-0.0	-0.0	-0.0	248762.125	16313.322265625	-4258.42626953125
0.015	-0.0	-0.0	-0.0	-0.0	-0.0	-0.0	-11.680153846740724	3.503476142883301	-884.750244140625	-0.0	-0.0	-0.0	-0.0	-0.0	-0.0	248220.171875	16972.26171875	-4546.01513671875
0.0155	-0.0	-0.0	-0.0	-0.0	-0.0	-0.0	-12.508220672607422	2.974129676818848	-884.63525390625	-0.0	-0.0	-0.0	-0.0	-0.0	-0.0	247941.0625	17295.083984375	-4685.01904296875
0.016	-0.0	-0.0	-0.0	-0.0	-0.0	-0.0	-12.270995140075684	2.119720458984375	-882.4179077148438	-0.0	-0.0	-0.0	-0.0	-0.0	-0.0	247590.3125	17695.333984375	-4784.09912109375
0.0165	-0.0	-0.0	-0.0	-0.0	-0.0	-0.0	-12.53756618499756	2.238600254058838	-882.888916015625	-0.0	-0.0	-0.0	-0.0	-0.0	-0.0	247035.0	18282.5625	-4932.353515625
0.017	-0.0	-0.0	-0.0	-0.0	-0.0	-0.0	-13.247211456298828	1.9131075143814087	-883.9365234375	-0.0	-0.0	-0.0	-0.0	-0.0	-0.0	246922.46875	18340.330078125	-5061.8876953125
0.0175	-0.0	-0.0	-0.0	-0.0	-0.0	-0.0	-13.069714546203612	2.5914478302001958	-883.8218383789062	-0.0	-0.0	-0.0	-0.0	-0.0	-0.0	246422.453125	18504.271484375	-5199.16015625
0.018000000000000002	-0.0	-0.0	-0.0	-0.0	-0.0	-0.0	-13.188719749450684	2.827436923980713	-885.0948486328125	-0.0	-0.0	-0.0	-0.0	-0.0	-0.0	246562.5	18769.6796875	-5199.86865234375
0.0185	-0.0	-0.0	-0.0	-0.0	-0.0	-0.0	-12.65516757965088	3.209921598434448	-886.610595703125	-0.0	-0.0	-0.0	-0.0	-0.0	-0.0	246697.046875	18470.47265625	-5080.736328125
0.019	-0.0	-0.0	-0.0	-0.0	-0.0	-0.0	-11.977503776550291	3.0029373168945312	-886.6163940429688	-0.0	-0.0	-0.0	-0.0	-0.0	-0.0	246575.296875	18294.3515625	-4892.08935546875
0.0195	-0.0	-0.0	-0.0	-0.0	-0.0	-0.0	-11.47270393371582	3.2984540462493896	-888.0001831054688	-0.0	-0.0	-0.0	-0.0	-0.0	-0.0	246539.5	18576.52734375	-4793.4931640625
0.02	-0.0	-0.0	-0.0	-0.0	-0.0	-0.0	-10.703168869018556	2.6496505737304688	-887.7637329101562	-0.0	-0.0	-0.0	-0.0	-0.0	-0.0	246002.65625	18346.134765625	-4506.19677734375
0.0205	-0.0	-0.0	-0.0	-0.0	-0.0	-0.0	-10.263579368591309	1.0679214000701904	-887.7868041992188	-0.0	-0.0	-0.0	-0.0	-0.0	-0.0	245144.375	18408.37109375	-4495.9609375
0.021	-0.0	-0.0	-0.0	-0.0	-0.0	-0.0	-10.647494316101074	-1.7620525360107422	-884.4097290039062	-0.0	-0.0	-0.0	-0.0	-0.0	-0.0	243890.703125	18793.453125	-4458.3623046875
0.021500000000000002	-0.0	-0.0	-0.0	-0.0	-0.0	-0.0	-11.060086250305176	-3.678460597991944	-879.6452026367188	-0.0	-0.0	-0.0	-0.0	-0.0	-0.0	242587.4375	19409.271484375	-4476.02001953125
0.022	-0.0	-0.0	-0.0	-0.0	-0.0	-0.0	-11.44114112854004	-5.296761989593506	-874.1827392578125	-0.0	-0.0	-0.0	-0.0	-0.0	-0.0	241065.53125	19716.986328125	-4697.25390625
0.0225	-0.0	-0.0	-0.0	-0.0	-0.0	-0.0	-11.918654441833496	-6.151246070861816	-870.3331298828125	-0.0	-0.0	-0.0	-0.0	-0.0	-0.0	239632.453125	20194.3671875	-4815.61328125
0.023	-0.0	-0.0	-0.0	-0.0	-0.0	-0.0	-12.273625373840332	-7.216854572296143	-864.7476806640625	-0.0	-0.0	-0.0	-0.0	-0.0	-0.0	238194.625	20520.458984375	-4845.80029296875
0.0235	-0.0	-0.0	-0.0	-0.0	-0.0	-0.0	-12.891609191894531	-7.920531749725342	-859.2620849609375	-0.0	-0.0	-0.0	-0.0	-0.0	-0.0	237152.234375	20856.625	-5163.177734375
0.024	-0.0	-0.0	-0.0	-0.0	-0.0	-0.0	-13.484039306640623	-7.504057884216309	-854.835205078125	-0.0	-0.0	-0.0	-0.0	-0.0	-0.0	236487.34375	20764.716796875	-5281.0712890625
0.0245	-0.0	-0.0	-0.0	-0.0	-0.0	-0.0	-13.775177001953123	-6.129318237304688	-852.3775024414062	-0.0	-0.0	-0.0	-0.0	-0.0	-0.0	235902.703125	20983.0078125	-5477.8984375
0.025	-0.0	-0.0	-0.0	-0.0	-0.0	-0.0	-13.725400924682615	-4.924936771392822	-850.7708129882812	-0.0	-0.0	-0.0	-0.0	-0.0	-0.0	235739.9375	20650.431640625	-5488.16943359375
0.025500000000000002	-0.0	-0.0	-0.0	-0.0	-0.0	-0.0	-13.39915370941162	-3.1270463466644287	-849.13671875	-0.0	-0.0	-0.0	-0.0	-0.0	-0.0	235792.1875	20461.3984375	-5560.05712890625
